<?xml version="1.0" encoding="UTF-8"?>
<svg xmlns="http://www.w3.org/2000/svg" xmlns:xlink="http://www.w3.org/1999/xlink" width="72pt" height="72pt" viewBox="0 0 72 72" version="1.1">
<g id="surface4109">
<path style=" stroke:none;fill-rule:evenodd;fill:rgb(0%,32.941177%,61.56863%);fill-opacity:1;" d="M 34.355469 4.929688 C 35.371094 4.359375 36.628906 4.359375 37.644531 4.929688 C 42.675781 7.753906 57.820312 16.253906 62.855469 19.078125 C 63.871094 19.648438 64.5 20.707031 64.5 21.847656 C 64.5 27.496094 64.5 44.5 64.5 50.148438 C 64.5 51.292969 63.871094 52.347656 62.855469 52.921875 C 57.820312 55.746094 42.679688 64.246094 37.644531 67.070312 C 36.625 67.640625 35.371094 67.640625 34.355469 67.070312 C 29.320312 64.246094 14.179688 55.746094 9.144531 52.921875 C 8.128906 52.347656 7.5 51.292969 7.5 50.152344 C 7.5 44.503906 7.5 27.5 7.5 21.851562 C 7.5 20.707031 8.128906 19.652344 9.144531 19.078125 C 14.175781 16.253906 29.324219 7.753906 34.355469 4.929688 Z M 34.355469 4.929688 "/>
<path style=" stroke:none;fill-rule:evenodd;fill:rgb(0%,52.549022%,83.137256%);fill-opacity:1;" d="M 7.957031 51.605469 C 7.558594 51.070312 7.5 50.566406 7.5 49.882812 C 7.5 44.265625 7.5 27.363281 7.5 21.742188 C 7.5 20.605469 8.125 19.558594 9.140625 18.988281 C 14.15625 16.183594 29.25 7.730469 34.261719 4.921875 C 35.277344 4.351562 36.652344 4.363281 37.667969 4.933594 C 42.683594 7.738281 57.726562 16.121094 62.742188 18.929688 C 63.144531 19.15625 63.453125 19.429688 63.730469 19.792969 Z M 7.957031 51.605469 "/>
<path style=" stroke:none;fill-rule:evenodd;fill:rgb(100%,100%,100%);fill-opacity:1;" d="M 36 15 C 47.589844 15 57 24.410156 57 36 C 57 47.589844 47.589844 57 36 57 C 24.410156 57 15 47.589844 15 36 C 15 24.410156 24.410156 15 36 15 Z M 36 25.5 C 41.792969 25.5 46.5 30.203125 46.5 36 C 46.5 41.792969 41.792969 46.5 36 46.5 C 30.207031 46.5 25.5 41.792969 25.5 36 C 25.5 30.203125 30.203125 25.5 36 25.5 Z M 36 25.5 "/>
<path style=" stroke:none;fill-rule:evenodd;fill:rgb(0%,45.882353%,75.294119%);fill-opacity:1;" d="M 63.726562 19.808594 C 64.5 20.53125 64.488281 21.625 64.488281 22.484375 C 64.488281 28.175781 64.4375 44.367188 64.5 50.058594 C 64.507812 50.652344 64.308594 51.277344 64.015625 51.75 L 35.390625 36 Z M 63.726562 19.808594 "/>
<path style=" stroke:none;fill-rule:evenodd;fill:rgb(100%,100%,100%);fill-opacity:1;" d="M 46.5 31.5 L 49.5 31.5 L 49.5 40.5 L 46.5 40.5 Z M 57 31.5 L 60 31.5 L 60 40.5 L 57 40.5 Z M 57 31.5 "/>
<path style=" stroke:none;fill-rule:evenodd;fill:rgb(100%,100%,100%);fill-opacity:1;" d="M 43.5 34.5 L 52.5 34.5 L 52.5 37.5 L 43.5 37.5 Z M 54 34.5 L 63 34.5 L 63 37.5 L 54 37.5 Z M 54 34.5 "/>
</g>
</svg>
