<?xml version="1.0" encoding="UTF-8"?>
<svg xmlns="http://www.w3.org/2000/svg" xmlns:xlink="http://www.w3.org/1999/xlink" width="72pt" height="72pt" viewBox="0 0 72 72" version="1.1">
<g id="surface3198">
<path style=" stroke:none;fill-rule:nonzero;fill:rgb(15.294118%,14.901961%,14.117648%);fill-opacity:1;" d="M 32.699219 6.300781 C 18.898438 7.800781 7.800781 18.898438 6.300781 32.398438 C 4.800781 46.5 12.898438 59.101562 25.199219 63.898438 C 26.101562 64.199219 27 63.601562 27 62.398438 L 27 57.601562 C 27 57.601562 25.800781 57.898438 24.300781 57.898438 C 20.101562 57.898438 18.300781 54.300781 18 52.199219 C 17.699219 51 17.101562 50.101562 16.199219 49.199219 C 15.300781 48.898438 15 48.898438 15 48.601562 C 15 48 15.898438 48 16.199219 48 C 18 48 19.5 50.101562 20.101562 51 C 21.601562 53.398438 23.398438 54 24.300781 54 C 25.5 54 26.398438 53.699219 27 53.398438 C 27.300781 51.300781 28.199219 49.199219 30 48 C 23.101562 46.5 18 42.601562 18 36 C 18 32.699219 19.5 29.398438 21.601562 27 C 21.300781 26.398438 21 24.898438 21 22.800781 C 21 21.601562 21 20.101562 21.601562 18.898438 C 21.601562 18.300781 22.199219 18 22.5 18 C 22.5 18 22.800781 18 22.800781 18 C 24.300781 18.300781 27.300781 19.199219 30 21.898438 C 31.800781 21.300781 33.898438 21 36 21 C 38.101562 21 40.199219 21.300781 42 21.898438 C 44.699219 19.199219 48 18.300781 49.5 18 C 49.5 18 49.800781 18 49.800781 18 C 50.398438 18 50.699219 18.300781 51 18.898438 C 51 20.101562 51 21.601562 51 22.800781 C 51 25.199219 50.699219 26.398438 50.398438 27 C 52.5 29.398438 54 32.398438 54 36 C 54 42.601562 48.898438 46.5 42 48 C 43.800781 49.5 45 52.199219 45 54.898438 L 45 62.699219 C 45 63.601562 45.898438 64.5 47.101562 64.199219 C 58.199219 59.699219 66 48.898438 66 36.300781 C 66 18.300781 50.699219 4.199219 32.699219 6.300781 Z M 32.699219 6.300781 "/>
</g>
</svg>
