<?xml version="1.0" encoding="UTF-8"?>
<svg xmlns="http://www.w3.org/2000/svg" xmlns:xlink="http://www.w3.org/1999/xlink" width="45pt" height="45pt" viewBox="0 0 45 45" version="1.1">
<g id="surface2724">
<path style=" stroke:none;fill-rule:nonzero;fill:rgb(15.294118%,14.901961%,14.117648%);fill-opacity:1;" d="M 36 6 L 9 6 C 7.34375 6 6 7.34375 6 9 L 6 36 C 6 37.65625 7.34375 39 9 39 L 36 39 C 37.65625 39 39 37.65625 39 36 L 39 9 C 39 7.34375 37.65625 6 36 6 Z M 16.429688 33 L 12.007812 33 L 12.007812 18.761719 L 16.429688 18.761719 Z M 14.171875 16.726562 C 12.746094 16.726562 11.59375 15.570312 11.59375 14.148438 C 11.59375 12.722656 12.75 11.566406 14.171875 11.566406 C 15.59375 11.566406 16.753906 12.722656 16.753906 14.148438 C 16.753906 15.570312 15.59375 16.726562 14.171875 16.726562 Z M 33.007812 33 L 28.585938 33 L 28.585938 26.074219 C 28.585938 24.425781 28.554688 22.300781 26.285156 22.300781 C 23.980469 22.300781 23.628906 24.097656 23.628906 25.957031 L 23.628906 33 L 19.207031 33 L 19.207031 18.761719 L 23.449219 18.761719 L 23.449219 20.707031 L 23.511719 20.707031 C 24.101562 19.589844 25.546875 18.40625 27.699219 18.40625 C 32.179688 18.40625 33.007812 21.355469 33.007812 25.191406 Z M 33.007812 33 "/>
</g>
</svg>
