<?xml version="1.0" encoding="UTF-8"?>
<svg xmlns="http://www.w3.org/2000/svg" xmlns:xlink="http://www.w3.org/1999/xlink" width="36pt" height="36pt" viewBox="0 0 36 36" version="1.1">
<defs>
<linearGradient id="linear0" gradientUnits="userSpaceOnUse" x1="10.458" y1="12.972" x2="26.313999" y2="26.277" gradientTransform="matrix(0.75,0,0,0.75,0,0)">
<stop offset="0" style="stop-color:rgb(14.901961%,67.058825%,90.588236%);stop-opacity:1;"/>
<stop offset="1" style="stop-color:rgb(3.137255%,42.745098%,74.901962%);stop-opacity:1;"/>
</linearGradient>
<linearGradient id="linear1" gradientUnits="userSpaceOnUse" x1="35.334" y1="37.910999" x2="23.517" y2="21.034" gradientTransform="matrix(0.75,0,0,0.75,0,0)">
<stop offset="0" style="stop-color:rgb(99.607843%,71.764708%,1.960784%);stop-opacity:1;"/>
<stop offset="1" style="stop-color:rgb(100%,85.490197%,10.980392%);stop-opacity:1;"/>
</linearGradient>
</defs>
<g id="surface3273">
<path style=" stroke:none;fill-rule:nonzero;fill:url(#linear0);" d="M 18.035156 3.75 C 16.867188 3.753906 16.058594 3.855469 15.082031 4.023438 C 12.195312 4.527344 11.671875 5.582031 11.671875 7.527344 L 11.671875 10.5 L 18.421875 10.5 L 18.421875 12 L 8.152344 12 C 6.175781 12 4.445312 12.929688 3.898438 15.164062 C 3.277344 17.726562 3.25 19.332031 3.898438 22.007812 C 4.386719 24.003906 5.46875 25.5 7.449219 25.5 L 10.171875 25.5 L 10.171875 21.671875 C 10.171875 19.449219 12.1875 17.25 14.496094 17.25 L 19.921875 17.25 C 21.816406 17.25 23.671875 15.851562 23.671875 13.96875 L 23.671875 7.527344 C 23.671875 5.699219 22.351562 4.332031 20.507812 4.023438 C 20.554688 4.019531 19.191406 3.746094 18.035156 3.75 Z M 14.296875 6.75 C 14.914062 6.75 15.421875 7.257812 15.421875 7.875 C 15.421875 8.5 14.914062 9 14.296875 9 C 13.667969 9 13.171875 8.503906 13.171875 7.875 C 13.171875 7.261719 13.667969 6.75 14.296875 6.75 Z M 14.296875 6.75 "/>
<path style=" stroke:none;fill-rule:nonzero;fill:url(#linear1);" d="M 17.308594 32.25 C 18.476562 32.246094 19.285156 32.144531 20.261719 31.976562 C 23.148438 31.472656 23.671875 30.417969 23.671875 28.472656 L 23.671875 25.5 L 16.921875 25.5 L 16.921875 24 L 27.191406 24 C 29.167969 24 30.898438 23.070312 31.449219 20.835938 C 32.066406 18.273438 32.09375 16.667969 31.449219 13.992188 C 30.957031 11.996094 29.875 10.5 27.894531 10.5 L 25.171875 10.5 L 25.171875 14.328125 C 25.171875 16.550781 23.15625 18.75 20.847656 18.75 L 15.421875 18.75 C 13.527344 18.75 11.671875 20.148438 11.671875 22.03125 L 11.671875 28.472656 C 11.671875 30.300781 12.992188 31.667969 14.835938 31.976562 C 14.789062 31.980469 16.152344 32.253906 17.308594 32.25 Z M 21.046875 29.25 C 20.429688 29.25 19.921875 28.742188 19.921875 28.125 C 19.921875 27.5 20.429688 27 21.046875 27 C 21.675781 27 22.171875 27.496094 22.171875 28.125 C 22.171875 28.738281 21.675781 29.25 21.046875 29.25 Z M 21.046875 29.25 "/>
</g>
</svg>
