<?xml version="1.0" encoding="UTF-8"?>
<svg xmlns="http://www.w3.org/2000/svg" xmlns:xlink="http://www.w3.org/1999/xlink" width="36pt" height="36pt" viewBox="0 0 36 36" version="1.1">
<defs>
<radialGradient id="radial0" gradientUnits="userSpaceOnUse" cx="23.941" cy="4.412" fx="23.941" fy="4.412" r="54.397999" gradientTransform="matrix(0.75,0,0,0.4533,0,1.30875)">
<stop offset="0.202" style="stop-color:rgb(15.294118%,96.078432%,94.509804%);stop-opacity:1;"/>
<stop offset="0.29" style="stop-color:rgb(14.509805%,88.627452%,93.333334%);stop-opacity:1;"/>
<stop offset="0.468" style="stop-color:rgb(12.54902%,69.411767%,90.588236%);stop-opacity:1;"/>
<stop offset="0.717" style="stop-color:rgb(9.803922%,38.82353%,85.882354%);stop-opacity:1;"/>
<stop offset="0.857" style="stop-color:rgb(7.843138%,20.392157%,83.137256%);stop-opacity:1;"/>
<stop offset="1" style="stop-color:rgb(0%,8.235294%,70.980394%);stop-opacity:1;"/>
</radialGradient>
</defs>
<g id="surface3782">
<path style=" stroke:none;fill-rule:nonzero;fill:url(#radial0);" d="M 25.6875 31.5 L 10.3125 31.5 C 7.101562 31.5 4.5 28.898438 4.5 25.6875 L 4.5 17.601562 L 15.75 4.5 L 25.6875 4.5 C 28.898438 4.5 31.5 7.101562 31.5 10.3125 L 31.5 25.6875 C 31.5 28.898438 28.898438 31.5 25.6875 31.5 Z M 25.6875 31.5 "/>
<path style=" stroke:none;fill-rule:nonzero;fill:rgb(10.196079%,36.078432%,97.647059%);fill-opacity:1;" d="M 15.75 4.5 L 4.5 17.601562 C 7.742188 21.914062 15.609375 24.9375 20.765625 20.203125 C 23.765625 16.453125 22.03125 10.3125 19.78125 8.296875 C 18.652344 7.285156 17.296875 5.828125 15.75 4.5 Z M 15.75 4.5 "/>
<path style=" stroke:none;fill-rule:nonzero;fill:rgb(12.941177%,66.666669%,96.078432%);fill-opacity:1;" d="M 15.75 4.5 L 4.5 16.261719 L 4.5 17.601562 C 8.308594 20.566406 14.253906 21.734375 18.421875 17.90625 C 21.421875 14.15625 19.6875 8.015625 17.4375 6 C 16.960938 5.574219 16.386719 5.050781 15.75 4.5 Z M 15.75 4.5 "/>
<path style=" stroke:none;fill-rule:nonzero;fill:rgb(14.509805%,87.843138%,94.901961%);fill-opacity:1;" d="M 4.5 13.859375 L 4.5 16.261719 C 8.015625 17.742188 12.234375 17.738281 15.421875 14.8125 C 17.839844 11.789062 17.273438 7.214844 15.75 4.5 L 13.386719 4.5 Z M 4.5 13.859375 "/>
<path style=" stroke:none;fill-rule:nonzero;fill:rgb(9.411765%,100%,100%);fill-opacity:1;" d="M 10.3125 4.5 C 7.101562 4.5 4.5 7.101562 4.5 10.3125 L 4.5 13.859375 C 7.105469 14.144531 9.792969 13.511719 11.984375 11.5 C 13.574219 9.511719 13.828125 6.859375 13.386719 4.5 Z M 10.3125 4.5 "/>
<path style=" stroke:none;fill-rule:nonzero;fill:rgb(0%,0%,0%);fill-opacity:1;" d="M 9.457031 11.152344 C 9.457031 11.152344 14.582031 18.898438 18.890625 21.515625 C 17.257812 22.042969 13.71875 24.183594 7.546875 20.398438 C 9.117188 22.554688 11.902344 26.875 18.714844 26.46875 C 21.101562 26.351562 22.558594 25.59375 23.898438 25.070312 C 25.238281 24.546875 26.519531 24.605469 27.625 26.585938 C 27.855469 24.777344 27.914062 23.089844 26.050781 21.167969 C 26.050781 21.167969 27.894531 14.148438 20.050781 8.605469 C 21.683594 11.867188 22.625 13.707031 21.859375 18.199219 C 20.113281 17.035156 13.660156 11.839844 12.207031 10.148438 C 13.253906 12.011719 16.269531 16.101562 17.316406 17.148438 C 15.453125 15.871094 9.457031 11.152344 9.457031 11.152344 Z M 9.457031 11.152344 "/>
</g>
</svg>
